inDegrees=no
num_controls=7
num_derivatives=13
num_iterations=104
num_multipliers=7
num_parameters=0
num_slacks=7
num_states=26
objective=4.458659
objective_accelerations=0.114164
objective_balance=0.047760
objective_effort=0.195651
objective_height=4.029097
objective_ligament=0.071987
solver_duration=1117.250135
status=Solve_Succeeded
success=true
DataType=double
version=3
OpenSimVersion=4.4-2022-07-23-0e9fedc
endheader
time	/jointset/ground_pelvis/pelvis_tilt/value	/jointset/ground_pelvis/pelvis_tx/value	/jointset/ground_pelvis/pelvis_ty/value	/jointset/hip_l/hip_flexion_l/value	/jointset/hip_l/hip_adduction_l/value	/jointset/hip_l/hip_rotation_l/value	/jointset/back/lumbar_extension/value	/jointset/patellofemoral_l/patellar_flexion_l/value	/jointset/knee_l/knee_flexion_l/value	/jointset/knee_l/knee_adduction_l/value	/jointset/knee_l/knee_rotation_l/value	/jointset/ankle_l/ankle_angle_l/value	/jointset/subtalar_l/subtalar_angle_l/value	/jointset/ground_pelvis/pelvis_tilt/speed	/jointset/ground_pelvis/pelvis_tx/speed	/jointset/ground_pelvis/pelvis_ty/speed	/jointset/hip_l/hip_flexion_l/speed	/jointset/hip_l/hip_adduction_l/speed	/jointset/hip_l/hip_rotation_l/speed	/jointset/back/lumbar_extension/speed	/jointset/patellofemoral_l/patellar_flexion_l/speed	/jointset/knee_l/knee_flexion_l/speed	/jointset/knee_l/knee_adduction_l/speed	/jointset/knee_l/knee_rotation_l/speed	/jointset/ankle_l/ankle_angle_l/speed	/jointset/subtalar_l/subtalar_angle_l/speed	/forceset/tau_hip_flexion_l	/forceset/tau_hip_adduction_l	/forceset/tau_hip_rotation_l	/forceset/tau_knee_flexion_l	/forceset/tau_ankle_angle_l	/forceset/tau_subtalar_angle_l	/forceset/tau_lumbar_extension	lambda_cid13_p0	lambda_cid13_p1	lambda_cid13_p2	lambda_cid13_p3	lambda_cid13_p4	lambda_cid13_p5	lambda_cid14_p0	/jointset/ground_pelvis/pelvis_tilt/accel	/jointset/ground_pelvis/pelvis_tx/accel	/jointset/ground_pelvis/pelvis_ty/accel	/jointset/hip_l/hip_flexion_l/accel	/jointset/hip_l/hip_adduction_l/accel	/jointset/hip_l/hip_rotation_l/accel	/jointset/back/lumbar_extension/accel	/jointset/patellofemoral_l/patellar_flexion_l/accel	/jointset/knee_l/knee_flexion_l/accel	/jointset/knee_l/knee_adduction_l/accel	/jointset/knee_l/knee_rotation_l/accel	/jointset/ankle_l/ankle_angle_l/accel	/jointset/subtalar_l/subtalar_angle_l/accel	gamma_cid13_p0	gamma_cid13_p1	gamma_cid13_p2	gamma_cid13_p3	gamma_cid13_p4	gamma_cid13_p5	gamma_cid14_p0
0	-0.03682268383218476	0.05667756729118963	0.9203415961891283	0.3085811930696054	-0.2956404114655521	-0.3016072512011255	-0.3879500408040475	0.2499276582273106	0.249927658227084	-0.1745328011940569	-0.1745329184892217	-0.0008036543073733089	0.000437670340584171	0	0	0	0	0	0	0	0	0	0	0	0	0	0.0482461684350312	-0.04970213841723641	-0.02668386745156155	-0.297789507524039	0.3253571296127841	-0.02922541262203448	0.0488001533834587	58.85444981279056	0.6867253008490403	1.379028048698865	-49.57027759274437	-670.8868441018417	-70.64814692124824	-23.197083572587	1.686521583763199	0.05420746230939774	-0.09382363615266485	0.3795077594549171	-0.4593083971032282	1.455639635605996	-5.317930256366827	4.055815975200098	4.055815975200614	0.365547752739631	-0.005312033167225707	2.23203563267617	0.278291838314206	-1.426945748840641e-08	1.114507325867223e-08	5.737036543139811e-08	2.715505720824161e-09	2.697067962840042e-08	-4.226684054863624e-08	-8.120528698932604e-09
0.01	-0.03673749433034382	0.05667944827115548	0.9203372268239894	0.3085974721318015	-0.2956625712869625	-0.30153493741462	-0.3882101676888027	0.2501253420358862	0.2501253420357542	-0.1745146506185841	-0.1745317816989983	-0.0006953359855974029	0.0004512884877884414	0.01710081766668274	0.0002901582909409078	-0.0008547947892751333	0.003136592102621506	-0.004332102143966333	0.01431584498076129	-0.05142821030801707	0.03923286217969345	0.0392328621796889	0.003736207211534403	0.0002185608006899693	0.02142874247818823	0.002747536546008659	0.0312465151176599	-0.06365071449218294	-0.02297854865220489	-0.2708761699626264	0.2789074978457687	0.0004939073754368539	0.0609481767453984	44.89726022465168	-9.857702086244172	3.152767406324005	-40.95355508439765	-673.1126145411131	-91.40596203467217	-23.19936635665126	1.731296460187049	0.003514892634203015	-0.07844027071563302	0.2628492828948226	-0.4051937761830428	1.397512451559319	-4.965691415369974	3.811438037468625	3.811438037467622	0.393579797703224	0.03412960150287305	2.063054410141178	0.2765622748847119	-1.157911733173254e-08	3.01074669579361e-08	3.708678556725769e-08	7.759901769825925e-09	3.215216852902593e-09	-2.255976517227303e-08	-2.641866160716572e-09
0.02	-0.036479409731553	0.05668164981005263	0.9203248829368769	0.308641539984346	-0.2957250586604416	-0.3013238740738368	-0.3889666616761511	0.2507062378058174	0.2507062378059054	-0.1744559534519559	-0.1745287214042761	-0.0003797780680928275	0.0004930975428801052	0.0345790194165332	6.411178626058799e-05	-0.001594904394763765	0.005557758094344858	-0.008065510413588255	0.027749910851359	-0.09927342050962339	0.07664239228397668	0.07664239228396444	0.008109318116771439	0.0003847001939231456	0.04144791914638446	0.005638181577612316	0.01424686180005197	-0.07759929056698857	-0.01927322985249722	-0.243962832401379	0.2324578660787855	0.0302132273730601	0.07309620010711364	30.97188396768573	-20.41063795692385	4.931219715811343	-32.47760250578016	-674.9267548421411	-112.1308130619705	-23.20601723767907	1.7619984003999	-0.04903349681757038	-0.07088659939547587	0.2364225372754198	-0.3395696222351489	1.279283813569381	-4.601330235082692	3.691149560119247	3.691149560119133	0.4929284914792629	-0.01579631466317273	1.950122470674616	0.3069135354313328	-8.888777175058658e-09	4.906986065719997e-08	1.680320570311727e-08	1.280429781882769e-08	-2.054024592259523e-08	-2.852689795909813e-09	2.836796377499459e-09
0.03	-0.03604626167338216	0.05668012717569836	0.920305458165816	0.3087075160147193	-0.2958230056441716	-0.300981767444146	-0.3901882961341066	0.2516540847123488	0.2516540847124552	-0.1743520764474724	-0.1745242371583971	0.0001308991206729883	0.0005640405578079501	0.05195734925725544	-0.0003422577594100184	-0.002295274083631434	0.007624910344722257	-0.01154689890164243	0.0406300922289743	-0.1449198997206756	0.1128015847104089	0.112801584710412	0.01257061940465174	0.0005009282766764672	0.06063887002786962	0.008510332324108472	0.01480750728188483	-0.06909755527360076	-0.01956884396291376	-0.2459201163729481	0.2378519071692899	0.02123756070102682	0.07317910996003342	32.34291230207338	-16.8129748015972	4.426658545116706	-33.13710626533938	-675.3268712042096	-104.5331406130389	-23.21674512371322	1.711762998723785	-0.03247897500119186	-0.07039999774782366	0.1899794672478428	-0.3558852183979467	1.28618692625479	-4.526271054436079	3.559492848096081	3.559492848098527	0.4084216891468891	0.02365032180580811	1.896284346309998	0.2713429238017948	-1.640524405376204e-08	2.275145521115087e-08	4.84310247825496e-08	1.294580491529649e-08	-3.233273622946734e-08	-3.772193174620646e-08	-3.4074740367801e-09
0.04	-0.03544212777236792	0.05667533278756825	0.920278872129045	0.3087937871471805	-0.2959564588640313	-0.300512098675388	-0.3918623882422564	0.2529597612960856	0.2529597612961175	-0.1742064482816405	-0.1745189270406786	0.0008320264081349688	0.0006625004961084434	0.06877618801106837	-0.0005902389689110118	-0.003027157536763056	0.009616778528228804	-0.01516675764199697	0.0532623386624598	-0.1897649505440905	0.1482083277044824	0.1482083277045045	0.01645955036068638	0.0005498744418289076	0.07953793888630023	0.01114156625229801	0.01536815276375393	-0.06059581998028771	-0.01986445807416968	-0.2478774003443649	0.243245948259806	0.01226189402893185	0.07326201981298999	33.74388731925399	-13.21770102869633	3.919218297004528	-33.92246252168804	-675.3371099547225	-96.89115326057592	-23.2313930600382	1.650100183021159	-0.01735582958631167	-0.07718935224831787	0.2213657239014893	-0.3672636726953322	1.229696824741985	-4.441044557553357	3.540659673648224	3.540659673648834	0.3784544251102651	-0.02925269818510547	1.891746066060749	0.2587301717688927	-2.413216056206084e-08	-4.500574959543875e-09	8.112918198452983e-08	1.298622151789863e-08	-4.387856731018222e-08	-7.371645858983632e-08	-9.893454408843076e-09
0.05	-0.03467208039282903	0.05666856204367297	0.9202448791415822	0.3088990947550433	-0.2961262947736339	-0.299918108133464	-0.3939792602369043	0.2546150862596439	0.2546150862596336	-0.1740239638473848	-0.1745137782241449	0.001720151198142331	0.0007864184327172747	0.08519335722276819	-0.000766862561743438	-0.003768934650788103	0.01138582737954794	-0.01876335479674564	0.06545837807546438	-0.2333114239095893	0.1826637063515759	0.1826637063516116	0.02004015158002175	0.0004808494067010651	0.09798883060155286	0.01364743417431736	0.01004525985395737	-0.05926696314938507	-0.0188466693733922	-0.2407094620423944	0.2318162418761293	0.01585965794110419	0.07760222913810548	30.15246211222025	-14.22054618118705	4.158106623684474	-31.71723899694085	-676.2576929938897	-98.46314529065994	-23.24978348587444	1.63153397218199	-0.01825594635183298	-0.07230496434207123	0.1458343834374167	-0.3503109131296764	1.202936681362992	-4.266745049326795	3.369035194715368	3.369035194717073	0.3482944340400811	0.004430423243724078	1.807031059018161	0.2473185664655921	-2.580482500627113e-08	-4.934658465851611e-09	8.438972235490775e-08	1.512541001713386e-08	-5.3823915983402e-08	-7.64289810811609e-08	-1.008022245204283e-08
0.06	-0.0337390595849107	0.05665993699939867	0.9202035417683067	0.3090203248348751	-0.2963309872900288	-0.2992044813610413	-0.3965226562298882	0.2566091766565549	0.2566091766565742	-0.1738055871081725	-0.174509288091756	0.002789838972251536	0.0009355557413548821	0.1013708737124551	-0.0009610990447156304	-0.004496034699281476	0.01280127293845543	-0.02213807900211499	0.07718958475978864	-0.2750697502058341	0.215961414377682	0.2159614143777275	0.02363801134714787	0.0004181375483757611	0.1158505357071982	0.01618544065820642	0.004722366944172485	-0.05793810631846402	-0.01782888067254009	-0.2335415237404314	0.2203865354924694	0.01945742185330007	0.08194243846321736	26.58877106755643	-15.23014504947897	4.400239360234058	-29.63676447205203	-676.8224516233539	-100.0060515122022	-23.27162880993007	1.602169638621587	-0.02087840761678393	-0.07425393914201983	0.1506450654193992	-0.3228890828194294	1.136730279005273	-4.083415143700725	3.309125549451305	3.309125549451159	0.3819061346687183	-0.02799006282546697	1.773908744136512	0.2651578841419214	-2.722257357409875e-08	-4.239565270500943e-09	8.641078412184978e-08	1.735296785938522e-08	-6.37018759236746e-08	-7.774015602080946e-08	-1.000176050244835e-08
0.07000000000000001	-0.03264569766602656	0.05664921580784729	0.9201549270377586	0.3091544451718559	-0.2965684721909855	-0.2983758442817296	-0.3994753838216512	0.2589307924362869	0.2589307924361567	-0.1735513790846087	-0.1745055438158801	0.004035192001357763	0.001110071967565488	0.1172401169916327	-0.001192328370354352	-0.005231540983071792	0.01400270792653443	-0.02534068307762361	0.08847244380210344	-0.3152481982916679	0.2481880342736929	0.2481880342736613	0.02717068516463616	0.00032876636215566	0.1331145423380894	0.0187010535969945	0.0009345721099542025	-0.0542813469484294	-0.01711354050851789	-0.2286854770396373	0.2126545729583706	0.01951981799793338	0.08518308219395242	24.07539427435974	-14.89204633597911	4.431864376119327	-27.92176008180946	-677.3034357526873	-98.86526078455836	-23.29658866046282	1.57009143505491	-0.0256200698085066	-0.07390626910364186	0.1018770198509219	-0.3162273715229619	1.114242953668706	-3.950924157721964	3.153376118424324	3.153376118412878	0.3340214947252513	0.000311116918064183	1.686815953285471	0.2422412037057211	-2.968197441362577e-08	-1.964866011391309e-08	9.708963917281434e-08	1.708891265511005e-08	-7.213440420079101e-08	-9.182864890076227e-08	-1.245895324638206e-08
0.08	-0.03139548536196974	0.05663590734807899	0.9200988157851517	0.3092999767195201	-0.2968374393930134	-0.297436342764621	-0.4028230687976361	0.2615694635965747	0.2615694635965973	-0.173262829625025	-0.1745027488992021	0.005450018962914873	0.001309239964154888	0.1327409507708294	-0.001478552688099068	-0.005995339111051955	0.01508351508854348	-0.02843453921742164	0.09936247231736485	-0.354061227045013	0.2793724905196321	0.2793724905195237	0.03050629855957947	0.0002282657134856766	0.1497453221977545	0.02111579473410984	-0.002853222724163295	-0.05062458757832078	-0.0163982003432063	-0.2238294303389522	0.2049226104243157	0.01958221414264054	0.08842372592471198	21.58782874433107	-14.5582402617917	4.46391479834389	-26.32144767840657	-677.4536485964801	-97.6936026316214	-23.32433762117742	1.528487738628279	-0.03187740604035735	-0.07991230798001912	0.1265195002056337	-0.3011394956772105	1.058164173594242	-3.810331277201257	3.10069281943744	3.100692819437341	0.3424940501600799	-0.03021595531597405	1.647263389888697	0.2449835238065627	-3.22085786255205e-08	-3.609673483079379e-08	1.083270615324255e-07	1.666410822202673e-08	-8.04736788222199e-08	-1.067414848736379e-07	-1.507973661570469e-08
0.09	-0.0299920784360675	0.05661955256451353	0.9200349340047274	0.3094555567786212	-0.2971367162725165	-0.2963900801136599	-0.4065517262310617	0.2645147357829045	0.2645147357828286	-0.1729417527841766	-0.1745011303407298	0.007028112860391522	0.001532184736478111	0.1478839814367213	-0.001792477650929225	-0.006783940424864001	0.01599007699969294	-0.03139311243183272	0.1098250062258466	-0.3914117862366557	0.3094949093185612	0.3094949093184919	0.0336891966336745	0.0001029159543375366	0.1657772518819623	0.02346957293796884	-0.007048894347655064	-0.04714850037204276	-0.01563815358088639	-0.2188425802712876	0.196740421562751	0.02009545536152519	0.09215374550605833	18.94752930199671	-14.39340162123656	4.522798167554013	-24.6800342885604	-678.0309822132558	-96.86070752270997	-23.35452116483213	1.498741688199037	-0.03115776559648391	-0.07878879031993258	0.06635878048932151	-0.2890708972843421	1.030522752125874	-3.658647224893484	2.939963856572125	2.939963856578152	0.3032136934470518	-0.002554751443696084	1.566724722639331	0.2300304120928434	-3.364609332623372e-08	-4.61769813497546e-08	1.141988281053075e-07	1.667443319813869e-08	-8.643834998755498e-08	-1.146998729092488e-07	-1.6518703455508e-08
